HIERARCHY
ROOT Hips
{
	OFFSET 0.000000 0.000000 0.000000
	CHANNELS 6 Xposition Yposition Zposition Zrotation Yrotation Xrotation 
	JOINT LeftUpLeg_virtual
	{
		OFFSET 0.000000 0.000000 0.000000
		CHANNELS 3 Zrotation Yrotation Xrotation
		JOINT LeftUpLeg
		{
			OFFSET 10.205400 -3.823500 0.155100
			CHANNELS 3 Zrotation Yrotation Xrotation
			JOINT LeftLeg
			{
				OFFSET 0.708757 -12.982077 0.567790
				CHANNELS 3 Zrotation Yrotation Xrotation
				JOINT LeftFoot
				{
					OFFSET -0.708756 -10.717838 -2.184338
					CHANNELS 3 Zrotation Yrotation Xrotation
					JOINT LeftToeBase
					{
						OFFSET 0.108149 -7.191104 7.560241
						CHANNELS 3 Zrotation Yrotation Xrotation
						JOINT LeftToe_End
						{
							OFFSET 0.070230 0.081724 4.490308
							CHANNELS 3 Zrotation Yrotation Xrotation
							End Site
							{
								OFFSET 0.000000 0.000000 0.000000
							}
						}
					}
				}
			}
		}
	}
	JOINT RightUpLeg_virtual
	{
		OFFSET 0.000000 0.000000 0.000000
		CHANNELS 3 Zrotation Yrotation Xrotation
		JOINT RightUpLeg
		{
			OFFSET -10.205400 -3.823500 0.005500
			CHANNELS 3 Zrotation Yrotation Xrotation
			JOINT RightLeg
			{
				OFFSET -0.708756 -12.982134 0.610632
				CHANNELS 3 Zrotation Yrotation Xrotation
				JOINT RightFoot
				{
					OFFSET 0.708754 -10.717769 -1.945823
					CHANNELS 3 Zrotation Yrotation Xrotation
					JOINT RightToeBase
					{
						OFFSET -0.108140 -7.191069 7.372968
						CHANNELS 3 Zrotation Yrotation Xrotation
						JOINT RightToe_End
						{
							OFFSET -0.070227 0.081735 4.479403
							CHANNELS 3 Zrotation Yrotation Xrotation
							End Site
							{
								OFFSET 0.000000 0.000000 0.000000
							}
						}
					}
				}
			}
		}
	}
	JOINT Spine_virtual
	{
		OFFSET 0.000000 0.000000 0.000000
		CHANNELS 3 Zrotation Yrotation Xrotation
		JOINT Spine
		{
			OFFSET 0.000000 6.876099 0.125700
			CHANNELS 3 Zrotation Yrotation Xrotation
			JOINT Spine1
			{
				OFFSET 0.000000 5.730043 0.104720
				CHANNELS 3 Zrotation Yrotation Xrotation
				JOINT Spine1_split
				{
					OFFSET 0.000000 5.730043 0.104720
					CHANNELS 3 Zrotation Yrotation Xrotation
					JOINT Spine2
					{
						OFFSET 0.000000 5.730043 0.104720
						CHANNELS 3 Zrotation Yrotation Xrotation
						JOINT Neck_virtual
						{
							OFFSET 0.000000 0.000000 0.000000
							CHANNELS 3 Zrotation Yrotation Xrotation
							JOINT Neck
							{
								OFFSET 0.000000 10.314075 0.188496
								CHANNELS 3 Zrotation Yrotation Xrotation
								JOINT Head
								{
									OFFSET 0.000000 7.643700 -2.377400
									CHANNELS 3 Zrotation Yrotation Xrotation
									JOINT HeadTop_End
									{
										OFFSET 0.000000 43.788605 -13.619600
										CHANNELS 3 Zrotation Yrotation Xrotation
										End Site
										{
											OFFSET 0.000000 0.000000 0.000000
										}
									}
								}
							}
						}
						JOINT LeftShoulder_virtual
						{
							OFFSET 0.000000 0.000000 0.000000
							CHANNELS 3 Zrotation Yrotation Xrotation
							JOINT LeftShoulder
							{
								OFFSET 2.196100 4.412489 0.087492
								CHANNELS 3 Zrotation Yrotation Xrotation
								JOINT LeftShoulder_split
								{
									OFFSET 2.196100 4.412489 0.087492
									CHANNELS 3 Zrotation Yrotation Xrotation
									JOINT LeftArm
									{
										OFFSET 8.771219 -2.981674 -0.026999
										CHANNELS 3 Zrotation Yrotation Xrotation
										JOINT LeftForeArm
										{
											OFFSET 8.512804 0.000000 -0.000000
											CHANNELS 3 Zrotation Yrotation Xrotation
											JOINT LeftHand
											{
												OFFSET 18.484802 0.000000 -0.000000
												CHANNELS 3 Zrotation Yrotation Xrotation
												End Site
												{
													OFFSET 0.000000 0.000000 0.000000
												}
											}
										}
									}
								}
							}
						}
						JOINT RightShoulder_virtual
						{
							OFFSET 0.000000 0.000000 0.000000
							CHANNELS 3 Zrotation Yrotation Xrotation
							JOINT RightShoulder
							{
								OFFSET -2.196100 4.412496 0.070690
								CHANNELS 3 Zrotation Yrotation Xrotation
								JOINT RightShoulder_split
								{
									OFFSET -2.196100 4.412496 0.070690
									CHANNELS 3 Zrotation Yrotation Xrotation
									JOINT RightArm
									{
										OFFSET -8.771282 -2.981682 -0.094208
										CHANNELS 3 Zrotation Yrotation Xrotation
										JOINT RightForeArm
										{
											OFFSET -8.494598 0.000000 0.000000
											CHANNELS 3 Zrotation Yrotation Xrotation
											JOINT RightHand
											{
												OFFSET -18.483803 0.000000 0.000001
												CHANNELS 3 Zrotation Yrotation Xrotation
												End Site
												{
													OFFSET 0.000000 0.000000 0.000000
												}
											}
										}
									}
								}
							}
						}
					}
				}
			}
		}
	}
}
MOTION
Frames: 9
Frame Time: 0.033333
2.535437 24.285706 56.862343 -0.112971 -0.711359 1.026360 -0.517288 -3.180175 3.889073 35.539715 27.303522 50.060704 0.653103 11.210164 27.865138 -36.375125 3.943077 -53.952327 -6.483255 -7.317866 -13.056789 0.000000 0.000000 0.000000 -2.839856 -4.134361 6.118533 -11.976934 -4.973254 -76.177933 1.562361 -7.103744 53.693463 25.720788 -1.650920 6.413712 -24.163994 6.392471 5.483423 0.000000 0.000000 0.000000 -0.064986 -1.253285 1.993170 3.370217 -12.030623 1.080692 -1.154965 -6.009275 2.556317 0.118115 -0.949749 0.123122 -0.041481 0.101311 0.103468 0.783650 -5.136230 5.861012 11.105707 17.371888 15.171829 -0.634770 12.850635 3.084536 0.000000 0.000000 0.000000 -0.194783 -5.854617 4.516493 -11.400545 -12.493554 4.585344 -7.658489 -0.416459 -4.263013 3.155005 -31.594621 -57.295455 23.144564 -51.318391 -31.880646 0.000000 0.000000 0.000000 0.383234 -6.463947 4.000707 -14.069589 0.483038 -0.691894 -3.271798 -8.720182 -10.187622 23.786906 55.719474 -13.932137 -0.193859 3.583383 5.104256 0.000000 0.000000 0.000000 
2.239814 24.251764 58.148598 -0.375844 -0.241364 0.485636 -1.931354 -8.469393 5.225919 37.660201 28.273131 53.985252 -1.291220 12.440040 21.384557 -32.090551 6.665556 -47.098174 -5.314897 -8.770842 -22.874672 0.000000 0.000000 0.000000 -4.551699 -9.393875 7.256863 -10.643944 1.624199 -75.303956 -1.355181 -9.766364 56.826334 21.241501 -3.289529 0.311936 -24.776429 6.282568 8.160561 0.000000 0.000000 0.000000 -1.639296 -6.761209 3.546468 4.792160 -13.541957 0.972398 -0.916428 -8.806808 3.438670 0.107767 -0.991950 0.003746 -0.020432 0.054299 0.003909 1.169131 -8.019681 6.261021 10.119439 20.221438 11.588906 1.774050 20.478608 8.851012 0.000000 0.000000 0.000000 -0.266033 -8.748391 4.758605 -14.925454 -20.703140 5.806575 -6.017193 -1.412028 -3.509443 6.967564 -36.442843 -48.251629 8.810448 -40.122205 -15.986884 0.000000 0.000000 0.000000 1.014172 -9.263881 4.409347 -6.532079 -3.925500 -0.125666 -3.512266 -7.617472 -7.967645 22.334749 43.168882 -9.304395 1.514106 -3.939971 3.050104 0.000000 0.000000 0.000000 
2.027181 24.251583 59.457012 -0.207365 -0.069680 0.048202 -4.174156 -13.903846 7.233323 40.044959 28.747993 54.661014 -3.772879 12.682345 19.113311 -27.953454 10.802984 -36.173607 -5.534266 -9.758235 -30.339605 0.000000 0.000000 0.000000 -6.037466 -14.126243 8.475927 -9.415029 6.204435 -74.757616 -2.902721 -10.661350 60.095092 18.720384 -4.719840 -2.041573 -24.637131 6.153318 10.386617 0.000000 0.000000 0.000000 -3.554101 -11.515970 5.824966 6.020018 -14.302023 0.707395 -0.948187 -10.966714 4.168028 0.036024 -0.883360 -0.044607 -0.016701 0.017603 0.006446 1.433062 -10.226823 6.655650 8.937131 22.451148 7.202639 3.567667 26.218497 12.981711 0.000000 0.000000 0.000000 -0.343306 -10.912550 4.819597 -17.109803 -27.531736 7.114451 -4.150397 -2.427293 -2.310170 7.068733 -40.369177 -39.214862 1.284564 -29.821593 -5.136184 0.000000 0.000000 0.000000 1.527278 -11.343090 4.397399 -0.141932 -7.324473 -0.453617 -3.651252 -6.362457 -5.972998 19.080400 32.637437 -7.367264 2.863426 -3.736417 0.233479 0.000000 0.000000 0.000000 
1.903846 24.266418 60.866829 -0.149824 0.035090 0.022006 -6.662703 -19.569592 9.405488 42.593152 28.514715 52.014264 -6.413510 12.838290 22.550841 -23.239097 15.607366 -23.709173 -8.025650 -10.311078 -31.346108 0.000000 0.000000 0.000000 -7.684968 -18.990363 9.667183 -8.223707 9.793054 -74.526161 -2.879130 -10.821916 62.106917 19.226363 -5.069505 -2.865874 -24.276256 7.152719 17.208834 0.000000 0.000000 0.000000 -5.584451 -16.161343 8.558762 7.152019 -14.274966 0.495703 -0.997812 -12.376110 4.525391 0.079478 -0.624461 -0.095846 -0.008820 -0.022800 -0.008293 1.384454 -11.636806 7.015783 7.733446 24.085410 2.517163 4.278557 30.232576 14.673620 0.000000 0.000000 0.000000 -0.523085 -12.303405 4.602411 -17.944551 -32.495137 8.274432 -2.530078 -3.042113 -0.873392 4.821876 -43.384470 -33.188162 -2.544859 -22.948508 3.666002 0.000000 0.000000 0.000000 1.809289 -12.643132 4.145895 4.730808 -9.261932 -1.175403 -3.530670 -5.300024 -3.840042 14.963409 24.578275 -7.404080 3.707413 1.451174 -2.429350 0.000000 0.000000 0.000000 
1.856815 24.304426 62.353165 -0.084489 0.028122 -0.223362 -9.586556 -24.805540 11.803480 45.103038 27.798346 46.246296 -8.862550 13.500276 30.827547 -17.551392 19.865465 -14.011589 -12.165306 -10.433031 -27.455737 0.000000 0.000000 0.000000 -9.379150 -23.517637 10.808652 -6.498712 11.765504 -72.800282 -2.319298 -10.944102 63.303190 20.290142 -4.884812 -3.606392 -22.401653 6.129239 17.007108 0.000000 0.000000 0.000000 -7.969486 -20.893687 11.588661 7.765977 -13.492068 0.742785 -1.081684 -13.057400 4.607914 0.145232 -0.241157 0.068042 0.050038 -0.000961 -0.022075 1.290393 -12.315435 6.912253 6.709587 25.064475 -1.850542 3.565399 32.797947 13.792261 0.000000 0.000000 0.000000 -0.646855 -13.000570 3.975152 -17.477957 -35.614423 8.945068 -1.351161 -2.699980 0.474262 1.596653 -45.754925 -31.847567 -4.305420 -19.124738 11.397952 0.000000 0.000000 0.000000 2.029430 -13.173665 3.532872 8.215078 -9.614162 -1.897261 -3.236881 -4.817600 -1.527445 10.052639 18.938882 -8.453329 3.773828 8.802862 -5.246445 0.000000 0.000000 0.000000 
1.863124 24.477818 63.962746 -0.129825 0.034125 -0.262378 -12.520397 -29.073305 14.050668 47.780141 26.859328 37.526439 -10.583427 13.711917 42.907149 -13.653333 22.130667 -8.029205 -15.860900 -10.151628 -24.367709 0.000000 0.000000 0.000000 -12.181216 -27.529578 12.498305 -4.582729 13.282168 -68.832693 -1.413705 -12.820261 61.482665 23.727299 -4.751271 -5.866663 -17.973129 -2.728187 18.740598 0.000000 0.000000 0.000000 -10.545683 -25.668136 14.184645 8.076104 -12.209085 1.253303 -0.964707 -13.129421 4.372267 0.182353 0.131452 0.174933 0.003439 -0.008493 -0.128779 1.057863 -12.383023 6.486579 5.925699 25.368170 -5.354639 1.781903 33.903126 11.076336 0.000000 0.000000 0.000000 -0.854495 -13.077550 3.193358 -16.084336 -37.046891 9.246275 -0.054767 -1.952139 1.735803 -1.160007 -48.444049 -34.671393 -4.736167 -16.975966 18.422316 0.000000 0.000000 0.000000 2.257370 -13.055126 2.732380 10.049887 -8.920874 -2.320534 -2.470244 -5.201405 0.398522 5.161518 15.099935 -10.921963 3.260411 15.095741 -8.111685 0.000000 0.000000 0.000000 
1.839704 24.843575 65.727654 -0.245614 -0.115198 -0.358140 -15.025532 -32.188110 15.794316 49.879847 25.370936 26.564817 -11.738339 13.150837 55.844767 -12.392820 22.194041 -5.437929 -17.622277 -10.231600 -25.761018 0.000000 0.000000 0.000000 -14.808782 -31.039433 14.178950 -1.799608 13.402462 -62.947351 0.088897 -13.852950 58.399477 21.942471 -2.525961 -8.881479 -21.464657 -2.792798 20.374570 0.000000 0.000000 0.000000 -12.947831 -30.106641 16.334908 7.878126 -10.736886 1.944100 -0.678747 -12.781839 3.674163 0.232092 0.378484 0.277066 0.029015 0.025551 -0.014642 0.923510 -12.015084 5.403110 5.449800 25.292474 -7.189893 -0.787097 33.791056 7.262877 0.000000 0.000000 0.000000 -1.192275 -12.802070 2.372955 -13.940927 -37.026117 9.249821 1.030199 -0.828194 2.556543 -0.676774 -52.037811 -41.497634 -4.244555 -14.630468 23.209826 0.000000 0.000000 0.000000 2.482415 -12.446965 1.872750 10.605294 -7.552423 -2.469170 -2.007804 -6.115246 2.442490 0.673028 12.606514 -15.170736 2.351681 18.928782 -10.529321 0.000000 0.000000 0.000000 
1.680190 25.417971 67.624168 -0.198077 -0.030698 -0.143092 -16.914497 -35.139380 16.923131 51.572115 24.639139 14.585126 -12.072769 11.753670 67.847226 -12.367751 21.015297 -4.436811 -17.672833 -10.542928 -29.903019 0.000000 0.000000 0.000000 -15.943265 -34.419693 15.149122 -0.142453 11.688609 -56.798514 1.488796 -13.444784 55.524855 21.797080 0.279362 -12.230288 -18.356950 -3.134067 21.350372 0.000000 0.000000 0.000000 -14.454366 -34.063028 16.933914 7.112545 -9.285008 2.583817 -0.266287 -12.183989 2.789597 0.146962 0.444661 0.261061 0.024480 0.023069 -0.019850 0.984750 -11.332226 3.885169 5.317241 25.094293 -6.968416 -3.561732 32.696717 3.620921 0.000000 0.000000 0.000000 -1.411026 -12.283962 1.864465 -11.143210 -35.804043 9.081401 2.182198 0.020904 2.344018 5.297850 -55.897305 -51.658582 -3.315950 -12.388851 25.451131 0.000000 0.000000 0.000000 2.885332 -11.514651 1.045817 9.725318 -6.183010 -2.250455 -2.424354 -6.836788 4.198911 -3.015017 11.390749 -22.346673 1.238817 21.206202 -11.996401 0.000000 0.000000 0.000000 
1.343661 26.115433 69.630867 -0.064297 -0.204221 -0.127684 -17.578354 -37.466791 17.244491 51.559298 24.677251 2.563422 -11.550891 9.198799 76.998676 -13.175606 20.265798 -4.159405 -17.454070 -10.220742 -30.653558 0.000000 0.000000 0.000000 -15.567027 -37.580152 15.076125 -0.877946 10.461495 -50.949195 2.339670 -11.498445 53.288870 23.412104 3.294674 -15.975285 -13.850046 -3.713417 18.623202 0.000000 0.000000 0.000000 -14.925626 -37.351320 16.475528 5.627271 -7.970729 3.111513 0.124649 -11.404383 1.734302 -0.019207 0.422922 0.148296 0.039693 0.031497 -0.028863 1.155534 -10.363449 2.110652 5.506079 24.774976 -4.654736 -6.193185 30.885187 0.888558 0.000000 0.000000 0.000000 -1.546811 -11.587139 1.666007 -7.457271 -33.364231 8.669329 2.991650 0.355838 1.549985 18.065989 -58.476569 -64.602340 -2.556986 -11.234457 24.836999 0.000000 0.000000 0.000000 3.303191 -10.452347 0.377142 7.122993 -5.349761 -1.879471 -2.941103 -6.953244 4.682552 -5.925907 11.392162 -33.448311 0.343254 23.862854 -12.503938 0.000000 0.000000 0.000000 
